<?xml version="1.0" encoding="UTF-8" standalone="no"?>
<!-- Generator: Adobe Illustrator 9.0, SVG Export Plug-In  -->
<svg
   xmlns:dc="http://purl.org/dc/elements/1.1/"
   xmlns:cc="http://web.resource.org/cc/"
   xmlns:rdf="http://www.w3.org/1999/02/22-rdf-syntax-ns#"
   xmlns:svg="http://www.w3.org/2000/svg"
   xmlns="http://www.w3.org/2000/svg"
   xmlns:sodipodi="http://sodipodi.sourceforge.net/DTD/sodipodi-0.dtd"
   xmlns:inkscape="http://www.inkscape.org/namespaces/inkscape"
   width="48pt"
   height="48pt"
   viewBox="0 0 48 48"
   xml:space="preserve"
   id="svg4619"
   sodipodi:version="0.32"
   inkscape:version="0.44.1"
   sodipodi:docname="note.svg"
   sodipodi:docbase="/home/vijaykumar/projects/arm-prog/images"><metadata
   id="metadata4649"><rdf:RDF><cc:Work
       rdf:about=""><dc:format>image/svg+xml</dc:format><dc:type
         rdf:resource="http://purl.org/dc/dcmitype/StillImage" /></cc:Work></rdf:RDF></metadata><defs
   id="defs4647">
		
		
		
		
		
	</defs><sodipodi:namedview
   inkscape:window-height="544"
   inkscape:window-width="906"
   inkscape:pageshadow="2"
   inkscape:pageopacity="0.0"
   guidetolerance="10.0"
   gridtolerance="10.0"
   objecttolerance="10.0"
   borderopacity="1.0"
   bordercolor="#666666"
   pagecolor="#ffffff"
   id="base"
   inkscape:zoom="7.0333333"
   inkscape:cx="30"
   inkscape:cy="30"
   inkscape:window-x="15"
   inkscape:window-y="123"
   inkscape:current-layer="svg4619" />
	<path
   id="path4628"
   d="M 35.7,8.8 L 11,8.8 L 11,38.7 L 35.7,38.7 L 35.7,8.8 z "
   style="fill:white;fill-rule:nonzero;stroke:black;stroke-width:6.38240004;stroke-linejoin:round;stroke-miterlimit:4" /><path
   id="path4630"
   d="M 35.7,8.8 L 11,8.8 L 11,38.7 L 35.7,38.7 L 35.7,8.8 z "
   style="fill:white;fill-rule:nonzero;stroke:none;stroke-miterlimit:4" />
	<g
   id="Layer_x0020_4"
   style="fill-rule:nonzero;clip-rule:nonzero;stroke:#000000;stroke-miterlimit:4;">
		<path
   style="fill:none;stroke-width:4.9715;stroke-linejoin:round;"
   d="M38.7,30.4L25,16.7l-7.7-3l2.7,8.7l13.3,13.4l5.4-5.4z"
   id="path4633" />
		<path
   style="stroke:none;"
   d="M38.7,30.4L25,16.7l-7.7-3l2.7,8.7l13.3,13.4l5.4-5.4z"
   id="path4635" />
		<path
   style="stroke:none;"
   d="M20.6,14.7l-2.5,2.5L17,13.4l3.6,1.3z"
   id="path4637" />
		<path
   style="fill:none;stroke-width:1.2429;"
   d="M19.6,22.2l3-0.3l2.4-2.4l0.4-2.8"
   id="path4639" />
		<path
   style="fill:#FFFFFF;stroke:none;"
   d="M20.4,14.9L18.3,17l1.6,5.2l2.7-0.3l2.4-2.4l0.3-2.4l-5-2.2z"
   id="path4641" />
	</g>
	<g
   id="crop"
   style="fill-rule:nonzero;clip-rule:nonzero;stroke:#000000;stroke-miterlimit:4;">
		<path
   style="fill:none;stroke:none;"
   d="M48,48H0V0h48v48z"
   id="path4644" />
	</g>
</svg>