<?xml version="1.0" encoding="UTF-8" standalone="no"?>
<!-- Generator: Adobe Illustrator 9.0, SVG Export Plug-In  -->
<svg
   xmlns:dc="http://purl.org/dc/elements/1.1/"
   xmlns:cc="http://web.resource.org/cc/"
   xmlns:rdf="http://www.w3.org/1999/02/22-rdf-syntax-ns#"
   xmlns:svg="http://www.w3.org/2000/svg"
   xmlns="http://www.w3.org/2000/svg"
   xmlns:sodipodi="http://sodipodi.sourceforge.net/DTD/sodipodi-0.dtd"
   xmlns:inkscape="http://www.inkscape.org/namespaces/inkscape"
   width="48pt"
   height="48pt"
   viewBox="0 0 48 48"
   xml:space="preserve"
   id="svg4452"
   sodipodi:version="0.32"
   inkscape:version="0.44.1"
   sodipodi:docname="tip.svg"
   sodipodi:docbase="/home/vijaykumar/projects/arm-prog/images"><metadata
   id="metadata4487"><rdf:RDF><cc:Work
       rdf:about=""><dc:format>image/svg+xml</dc:format><dc:type
         rdf:resource="http://purl.org/dc/dcmitype/StillImage" /></cc:Work></rdf:RDF></metadata><defs
   id="defs4485">
		
	
			
			
			
			
			
			
			
			
			
			
			
			
		</defs><sodipodi:namedview
   inkscape:window-height="544"
   inkscape:window-width="906"
   inkscape:pageshadow="2"
   inkscape:pageopacity="0.0"
   guidetolerance="10.0"
   gridtolerance="10.0"
   objecttolerance="10.0"
   borderopacity="1.0"
   bordercolor="#666666"
   pagecolor="#ffffff"
   id="base"
   inkscape:zoom="7.0333333"
   inkscape:cx="30"
   inkscape:cy="30"
   inkscape:window-x="10"
   inkscape:window-y="99"
   inkscape:current-layer="svg4452" />
	<path
   style="fill:white;fill-rule:nonzero;stroke:none;stroke-width:5.61390018;stroke-miterlimit:4"
   d="M 35.9,18.7 C 35.9,25.3 30.5,30.7 23.9,30.7 C 17.3,30.7 11.9,25.3 11.9,18.7 C 11.9,12.1 17.3,6.7 23.9,6.7 C 30.5,6.7 35.9,12.1 35.9,18.7 z "
   id="path4467" /><path
   style="fill-rule:nonzero;stroke:none;stroke-width:5.61390018;stroke-miterlimit:4"
   d="M 9.6,18.6 C 9.6,26.6 16.1,33 24,33 C 32,33 38.4,26.5 38.4,18.6 C 38.4,10.6 31.9,4.2 24,4.2 C 16,4.2 9.6,10.7 9.6,18.6 z M 12.9,18.6 C 12.9,12.4 17.9,7.4 24.1,7.4 C 30.3,7.4 35.3,12.4 35.3,18.6 C 35.3,24.8 30.3,29.8 24.1,29.8 C 17.9,29.8 12.9,24.8 12.9,18.6 L 12.9,18.6 z "
   id="path4469" /><path
   style="fill-rule:nonzero;stroke:none;stroke-width:5.61390018;stroke-miterlimit:4"
   d="M 28.2,37.9 L 20.6,38.7 C 19.7,38.8 19.1,39.6 19.2,40.5 C 19.3,41.4 20.1,42 21,41.9 L 28.6,41.1 C 29.5,41 30.1,40.2 30,39.3 C 29.9,38.4 29.1,37.8 28.2,37.9 z "
   id="path4471" /><path
   style="fill-rule:nonzero;stroke:none;stroke-width:5.61390018;stroke-miterlimit:4"
   d="M 28.2,34.7 L 20.6,35.5 C 19.7,35.6 19.1,36.4 19.2,37.3 C 19.3,38.2 20.1,38.8 21,38.7 L 28.6,37.9 C 29.5,37.8 30.1,37 30,36.1 C 29.9,35.2 29.1,34.6 28.2,34.7 z "
   id="path4473" /><path
   style="fill-rule:nonzero;stroke:none;stroke-width:5.61390018;stroke-miterlimit:4"
   d="M 28.2,31.6 L 20.6,32.4 C 19.7,32.5 19.1,33.3 19.2,34.2 C 19.3,35.1 20.1,35.7 21,35.6 L 28.6,34.8 C 29.5,34.7 30.1,33.9 30,33 C 29.9,32.1 29.1,31.5 28.2,31.6 z "
   id="path4475" /><path
   style="fill-rule:nonzero;stroke:none;stroke-width:5.61390018;stroke-miterlimit:4"
   d="M 23.1,41.3 L 23.1,42.2 C 23.1,43.1 23.8,43.8 24.7,43.8 C 25.6,43.8 26.3,43.1 26.3,42.2 L 26.3,41.3 L 23,41.3 L 23.1,41.3 z "
   id="path4477" /><path
   style="fill:none;fill-rule:nonzero;stroke:black;stroke-width:1.09440005;stroke-miterlimit:4"
   d="M 22.3,28.3 L 18.8,17.6 C 18.8,17.6 25.4,21.5 29.3,17.6"
   id="path4479" />
	<g
   id="crop_x0020_marks"
   style="fill-rule:nonzero;clip-rule:nonzero;stroke:#000000;stroke-miterlimit:4;">
		<path
   style="fill:none;stroke:none;"
   d="M48,48H0V0h48v48z"
   id="path4482" />
	</g>
</svg>